<?xml version="1.0" ?><svg viewBox="0 0 64 64" xmlns="http://www.w3.org/2000/svg"><g id="outline"><path d="M41.627,10.037h-.062a8.53,8.53,0,0,0-6.078,2.506L24.526,23.5A8.708,8.708,0,0,0,24.6,35.8l2.217,2.217a1,1,0,0,0,1.414,0l2.98-2.98a1,1,0,0,0,0-1.414L29,31.407a2.467,2.467,0,0,1-.05-3.485l10.96-10.96a2.469,2.469,0,0,1,3.485.051l3.182,3.181a2.47,2.47,0,0,1,.051,3.486L42.28,28.023a1,1,0,0,0,0,1.415l3,3a1,1,0,0,0,1.414,0L51.043,28.1a8.532,8.532,0,0,0,2.505-6.141A8.745,8.745,0,0,0,50.967,15.8l-3.182-3.182A8.751,8.751,0,0,0,41.627,10.037Zm9.921,11.936a6.543,6.543,0,0,1-1.919,4.712l-3.637,3.636L44.4,28.73l3.637-3.636a4.47,4.47,0,0,0-.051-6.314L44.805,15.6a4.468,4.468,0,0,0-6.313-.051l-10.96,10.96a4.361,4.361,0,0,0-1.281,3.157,4.5,4.5,0,0,0,1.331,3.156l1.511,1.511L27.527,35.9l-1.51-1.509a6.706,6.706,0,0,1-.077-9.471L36.9,13.957a6.544,6.544,0,0,1,4.664-1.92h.048a6.762,6.762,0,0,1,4.758,2l3.182,3.182A6.757,6.757,0,0,1,51.548,21.973Z"/><path d="M21.42,36.862a1,1,0,0,0,0-1.414l-3.005-3.006a1.029,1.029,0,0,0-1.414,0l-4.5,4.5A8.533,8.533,0,0,0,10,43.079a8.746,8.746,0,0,0,2.582,6.157l3.182,3.182A8.772,8.772,0,0,0,21.982,55a8.563,8.563,0,0,0,6.08-2.505l10.96-10.96a8.531,8.531,0,0,0,2.506-6.14,8.749,8.749,0,0,0-2.582-6.158l-2.217-2.217a1,1,0,0,0-1.415,0L32.335,30a1,1,0,0,0,0,1.414l2.217,2.218a2.468,2.468,0,0,1,.051,3.485l-10.96,10.96a2.471,2.471,0,0,1-3.486-.051l-3.181-3.181a2.516,2.516,0,0,1-.746-1.764,2.378,2.378,0,0,1,.7-1.722Zm-5.858,9.395,3.181,3.181a4.47,4.47,0,0,0,6.314.051l10.96-10.96a4.469,4.469,0,0,0-.051-6.313l-1.51-1.511,1.565-1.565,1.511,1.51a6.759,6.759,0,0,1,2,4.758,6.548,6.548,0,0,1-1.92,4.712L26.648,51.08A6.7,6.7,0,0,1,17.178,51L14,47.822a6.758,6.758,0,0,1-2-4.758,6.542,6.542,0,0,1,1.92-4.711l3.788-3.79L19.3,36.155l-3.788,3.788A4.362,4.362,0,0,0,14.23,43.1,4.507,4.507,0,0,0,15.562,46.257Z"/><rect height="2" transform="translate(6.745 40.284) rotate(-45)" width="2.828" x="50.586" y="11"/><rect height="2" transform="translate(9.745 41.527) rotate(-45)" width="2.828" x="53.586" y="8"/><rect height="2" transform="translate(-37.255 22.059) rotate(-45)" width="2.828" x="6.586" y="55"/><rect height="2" transform="translate(-34.255 23.302) rotate(-45)" width="2.828" x="9.586" y="52"/><polygon points="2 57 2 62 7 62 7 60 5.414 60 6.707 58.707 5.293 57.293 4 58.586 4 57 2 57"/><polygon points="56 5 57.586 5 56.293 6.293 57.707 7.707 59 6.414 59 8 61 8 61 3 56 3 56 5"/></g></svg>